<svg width="243" height="243" viewBox="0 0 243 243" fill="none" xmlns="http://www.w3.org/2000/svg">
<rect x="0.5" y="0.5" width="242" height="242" rx="121" fill="white"/>
<rect x="0.5" y="0.5" width="242" height="242" rx="121" stroke="#3B3B3B"/>
<path d="M62.4996 18.943C62.0266 18.1238 61.7901 17.7141 61.9019 17.3103C62.0137 16.9064 62.4224 16.6794 63.2398 16.2253C81.2086 6.24322 101.435 0.997843 122.012 1C142.589 1.00216 162.815 6.25178 180.781 16.2376C181.599 16.6918 182.007 16.919 182.119 17.3229C182.231 17.7268 181.994 18.1363 181.521 18.9555L176.259 28.0649C175.79 28.8781 175.555 29.2846 175.161 29.394C174.767 29.5034 174.351 29.2732 173.518 28.8127C157.759 20.1008 140.039 15.5219 122.011 15.52C103.983 15.5181 86.261 20.0933 70.501 28.8019C69.6679 29.2622 69.2514 29.4924 68.8576 29.3829C68.4638 29.2734 68.2291 28.8668 67.7596 28.0536L62.4996 18.943Z" fill="url(#paint0_linear_8001_9289)"/>
<defs>
<linearGradient id="paint0_linear_8001_9289" x1="-119.522" y1="119.672" x2="13.0022" y2="122.755" gradientUnits="userSpaceOnUse">
<stop stop-color="white"/>
<stop offset="1" stop-color="#95C759"/>
</linearGradient>
</defs>
</svg>
