<svg width="1512" height="648" viewBox="0 0 1512 648" fill="none" xmlns="http://www.w3.org/2000/svg">
<path fill-rule="evenodd" clip-rule="evenodd" d="M1.22576 66.3376V130.012H94.1961V66.3376H1.22576ZM0.00246093 195.364V130.85H0.00107658L0.00107666 130.012H0.00246093V66.3376H0.00107658L0.00107666 65.4997H0.00246093V0.983887H1.22576V65.4997H94.1961V0.983887H95.4194V65.4997H188.39V0.983887H189.614V65.4997H283.806V0.983887H285.03V65.4997H378V0.983911H379.223V65.4997H472.196V0.983887H473.42V65.4997H566.39V0.983887H567.614V65.4997H660.584V0.983911H661.807V65.4997H754.778V0.983887H756.001V65.4997H850.196V0.983887H851.42V65.4997H944.39V0.983887H945.614V65.4997H1038.58V0.983911H1039.81V65.4997H1132.78V0.983887H1134V65.4997H1226.97V0.983887H1228.2V65.4997H1321.17V0.983911H1322.4V65.4997H1416.58V0.983911H1417.8V65.4997H1509.56V0.983911H1510.78V517.935H1512V518.773H1510.78V647.801H1509.56V584.125H1417.8V647.801H1416.58V584.125H1322.4V647.801H1321.17V584.125H1228.2V647.801H1226.97V584.125H1134V647.801H1132.78V584.125H1039.81V647.801H1038.58V584.125H945.614V647.801H944.39V584.125H851.42V647.801H850.196V584.125H756.001V647.801H754.778V584.125H661.807V647.801H660.584V584.125H567.614V647.801H566.39V584.125H473.42V647.801H472.196V584.125H379.223V647.801H378V584.125H285.03V647.801H283.806V584.125H189.614V647.801H188.39V584.125H95.4194V647.801H94.1961V584.125H1.22576V647.801H0.00246093V584.125H0.00107658L0.00107666 583.287H0.00246093V518.773H0V517.934H0.00246093V454.26H0.00107658L0.00107666 453.422H0.00246093V389.744H0.00107658L0.00107666 388.906H0.00246093V325.232H0.00107658L0.00107666 324.394H0.00246093V260.716H0.00107658L0.00107666 259.878H0.00246093V196.202H0.00107658L0.00107666 195.364H0.00246093ZM1.22576 583.287H94.1961V518.773H1.22576V583.287ZM95.4194 583.287H188.39V518.773H95.4194V583.287ZM189.614 583.287H283.806V518.773H189.614V583.287ZM285.03 583.287H378V518.773H285.03V583.287ZM379.223 583.287H472.196V518.773H379.223V583.287ZM473.42 583.287H566.39V518.773H473.42V583.287ZM567.614 583.287H660.584V518.773H567.614V583.287ZM661.807 583.287H754.778V518.773H661.807V583.287ZM756.001 583.287H850.196V518.773H756.001V583.287ZM851.42 583.287H944.39V518.773H851.42V583.287ZM945.614 583.287H1038.58V518.773H945.614V583.287ZM1039.81 583.287H1132.78V518.773H1039.81V583.287ZM1134 583.287H1226.97V518.773H1134V583.287ZM1228.2 583.287H1321.17V518.773H1228.2V583.287ZM1322.4 583.287H1416.58V518.773H1322.4V583.287ZM1417.8 583.287H1509.56V518.773H1417.8V583.287ZM1509.56 454.261V517.935H1417.8V454.261H1509.56ZM1416.58 454.261V517.935H1322.4V454.261H1416.58ZM1321.17 454.261V517.935H1228.2V454.261H1321.17ZM1226.97 454.261V517.935H1134V454.261H1226.97ZM1132.78 454.261V517.935H1039.81V454.261H1132.78ZM1038.58 454.261V517.935H945.614V454.261H1038.58ZM944.39 454.261V517.935H851.42V454.261H944.39ZM850.196 454.261V517.935H756.001V454.261H850.196ZM754.778 454.26V517.934H661.807V454.26H754.778ZM660.584 454.26V517.934H567.614V454.26H660.584ZM566.39 454.26V517.934H473.42V454.26H566.39ZM472.196 454.26V517.934H379.223V454.26H472.196ZM378 454.26V517.934H285.03V454.26H378ZM283.806 454.26V517.934H189.614V454.26H283.806ZM188.39 454.26V517.934H95.4194V454.26H188.39ZM94.1961 454.26V517.934H1.22576V454.26H94.1961ZM1.22576 453.422H94.1961V389.744H1.22576V453.422ZM95.4194 453.422H188.39V389.744H95.4194V453.422ZM189.614 453.422H283.806V389.744H189.614V453.422ZM285.03 453.422H378V389.744H285.03V453.422ZM379.223 453.422H472.196V389.744H379.223V453.422ZM473.42 453.422H566.39V389.744H473.42V453.422ZM567.614 453.422H660.584V389.744H567.614V453.422ZM661.807 453.422H754.778V389.744H661.807V453.422ZM756.001 453.422H850.196V389.744H756.001V453.422ZM851.42 453.422H944.39V389.744H851.42V453.422ZM945.614 453.422H1038.58V389.744H945.614V453.422ZM1039.81 453.422H1132.78V389.744H1039.81V453.422ZM1134 453.422H1226.97V389.744H1134V453.422ZM1228.2 453.422H1321.17V389.744H1228.2V453.422ZM1322.4 453.422H1416.58V389.744H1322.4V453.422ZM1417.8 453.422H1509.56V389.744H1417.8V453.422ZM1509.56 325.232V388.906H1417.8V325.232H1509.56ZM1416.58 325.232V388.906H1322.4V325.232H1416.58ZM1321.17 325.232V388.906H1228.2V325.232H1321.17ZM1226.97 325.232V388.906H1134V325.232H1226.97ZM1132.78 325.232V388.906H1039.81V325.232H1132.78ZM1038.58 325.232V388.906H945.614V325.232H1038.58ZM944.39 325.232V388.906H851.42V325.232H944.39ZM850.196 325.232V388.906H756.001V325.232H850.196ZM754.778 325.232V388.906H661.807V325.232H754.778ZM660.584 325.232V388.906H567.614V325.232H660.584ZM566.39 325.232V388.906H473.42V325.232H566.39ZM472.196 325.232V388.906H379.223V325.232H472.196ZM378 325.232V388.906H285.03V325.232H378ZM283.806 325.232V388.906H189.614V325.232H283.806ZM188.39 325.232V388.906H95.4194V325.232H188.39ZM94.1961 325.232V388.906H1.22576V325.232H94.1961ZM1.22576 324.394H94.1961V260.716H1.22576V324.394ZM95.4194 324.394H188.39V260.716H95.4194V324.394ZM189.614 324.394H283.806V260.716H189.614V324.394ZM285.03 324.394H378V260.716H285.03V324.394ZM379.223 324.394H472.196V260.716H379.223V324.394ZM473.42 324.394H566.39V260.716H473.42V324.394ZM567.614 324.394H660.584V260.716H567.614V324.394ZM661.807 324.394H754.778V260.716H661.807V324.394ZM756.001 324.394H850.196V260.716H756.001V324.394ZM851.42 324.394H944.39V260.716H851.42V324.394ZM945.614 324.394H1038.58V260.716H945.614V324.394ZM1039.81 324.394H1132.78V260.716H1039.81V324.394ZM1134 324.394H1226.97V260.716H1134V324.394ZM1228.2 324.394H1321.17V260.716H1228.2V324.394ZM1322.4 324.394H1416.58V260.716H1322.4V324.394ZM1417.8 324.394H1509.56V260.716H1417.8V324.394ZM1509.56 196.202V259.878H1417.8V196.202H1509.56ZM1416.58 196.202V259.878H1322.4V196.202H1416.58ZM1321.17 196.202V259.878H1228.2V196.202H1321.17ZM1226.97 196.202V259.878H1134V196.202H1226.97ZM1132.78 196.202V259.878H1039.81V196.202H1132.78ZM1038.58 196.202V259.878H945.614V196.202H1038.58ZM944.39 196.202V259.878H851.42V196.202H944.39ZM850.196 196.202V259.878H756.001V196.202H850.196ZM754.778 196.202V259.878H661.807V196.202H754.778ZM660.584 196.202V259.878H567.614V196.202H660.584ZM566.39 196.202V259.878H473.42V196.202H566.39ZM472.196 196.202V259.878H379.223V196.202H472.196ZM378 196.202V259.878H285.03V196.202H378ZM283.806 196.202V259.878H189.614V196.202H283.806ZM188.39 196.202V259.878H95.4194V196.202H188.39ZM94.1961 196.202V259.878H1.22576V196.202H94.1961ZM1.22576 195.364H94.1961V130.85H1.22576V195.364ZM95.4194 195.364H188.39V130.85H95.4194V195.364ZM189.614 195.364H283.806V130.85H189.614V195.364ZM285.03 195.364H378V130.85H285.03V195.364ZM379.223 195.364H472.196V130.85H379.223V195.364ZM473.42 195.364H566.39V130.85H473.42V195.364ZM567.614 195.364H660.584V130.85H567.614V195.364ZM661.807 195.364H754.778V130.85H661.807V195.364ZM756.001 195.364H850.196V130.85H756.001V195.364ZM851.42 195.364H944.39V130.85H851.42V195.364ZM945.614 195.364H1038.58V130.85H945.614V195.364ZM1039.81 195.364H1132.78V130.85H1039.81V195.364ZM1134 195.364H1226.97V130.85H1134V195.364ZM1228.2 195.364H1321.17V130.85H1228.2V195.364ZM1322.4 195.364H1416.58V130.85H1322.4V195.364ZM1417.8 195.364H1509.56V130.85H1417.8V195.364ZM1509.56 66.3376V130.012H1417.8V66.3376H1509.56ZM1416.58 66.3376V130.012H1322.4V66.3376H1416.58ZM1321.17 66.3376V130.012H1228.2V66.3376H1321.17ZM1226.97 66.3376V130.012H1134V66.3376H1226.97ZM1132.78 66.3376V130.012H1039.81V66.3376H1132.78ZM1038.58 66.3376V130.012H945.614V66.3376H1038.58ZM944.39 66.3376V130.012H851.42V66.3376H944.39ZM850.196 66.3376V130.012H756.001V66.3376H850.196ZM754.778 66.3376V130.012H661.807V66.3376H754.778ZM660.584 66.3376V130.012H567.614V66.3376H660.584ZM566.39 66.3376V130.012H473.42V66.3376H566.39ZM472.196 66.3376V130.012H379.223V66.3376H472.196ZM378 66.3376V130.012H285.03V66.3376H378ZM283.806 66.3376V130.012H189.614V66.3376H283.806ZM188.39 66.3376V130.012H95.4194V66.3376H188.39Z" fill="url(#paint0_linear_1_21421)"/>
<defs>
<linearGradient id="paint0_linear_1_21421" x1="756" y1="0.983887" x2="756" y2="647.801" gradientUnits="userSpaceOnUse">
<stop stop-color="#B4B4B4" stop-opacity="0"/>
<stop offset="0.475" stop-color="#737373" stop-opacity="0.31"/>
<stop offset="1" stop-color="#D9D9D9" stop-opacity="0"/>
</linearGradient>
</defs>
</svg>
