<svg width="724" height="592" viewBox="0 0 724 592" fill="none" xmlns="http://www.w3.org/2000/svg">
<path d="M395.448 19.0636L717.062 530.204C733.62 556.521 714.706 590.768 683.614 590.768H40.386C9.29352 590.768 -9.62033 556.521 6.93823 530.204L328.552 19.0635C344.049 -5.56639 379.951 -5.56633 395.448 19.0636Z" fill="white" fill-opacity="0.2"/>
<path d="M395.448 19.0636L717.062 530.204C733.62 556.521 714.706 590.768 683.614 590.768H40.386C9.29352 590.768 -9.62033 556.521 6.93823 530.204L328.552 19.0635C344.049 -5.56639 379.951 -5.56633 395.448 19.0636Z" fill="#040404"/>
<path d="M395.448 19.0636L717.062 530.204C733.62 556.521 714.706 590.768 683.614 590.768H40.386C9.29352 590.768 -9.62033 556.521 6.93823 530.204L328.552 19.0635C344.049 -5.56639 379.951 -5.56633 395.448 19.0636Z" stroke="#3B3B3B" stroke-width="0.96383"/>
</svg>
