<svg width="122" height="29" viewBox="0 0 122 29" fill="none" xmlns="http://www.w3.org/2000/svg">
<path d="M1.49907 17.943C1.02609 17.1237 0.789604 16.7141 0.90141 16.3103C1.01321 15.9064 1.42192 15.6793 2.23933 15.2253C20.2081 5.24322 40.4346 -0.00215409 61.0117 8.6503e-06C81.5889 0.00216376 101.814 5.25178 119.781 15.2376C120.598 15.6919 121.007 15.919 121.119 16.3229C121.23 16.7268 120.994 17.1363 120.521 17.9555L115.259 27.0649C114.789 27.8781 114.554 28.2846 114.16 28.394C113.767 28.5034 113.35 28.2732 112.517 27.8127C96.759 19.1008 79.038 14.5219 61.0102 14.52C42.9824 14.5181 25.2605 19.0933 9.50053 27.8019C8.66745 28.2622 8.25092 28.4924 7.85713 28.3829C7.46334 28.2734 7.22858 27.8668 6.75907 27.0536L1.49907 17.943Z" fill="url(#paint0_linear_3_807)"/>
<defs>
<linearGradient id="paint0_linear_3_807" x1="-180.523" y1="118.672" x2="-47.9983" y2="121.755" gradientUnits="userSpaceOnUse">
<stop stop-color="white"/>
<stop offset="1" stop-color="#95C759"/>
</linearGradient>
</defs>
</svg>
